<?xml version="1.0" standalone="no"?>
<!DOCTYPE svg PUBLIC "-//W3C//DTD SVG 20010904//EN"
 "http://www.w3.org/TR/2001/REC-SVG-20010904/DTD/svg10.dtd">
<svg version="1.0" xmlns="http://www.w3.org/2000/svg"
 width="700.000000pt" height="700.000000pt" viewBox="0 0 700.000000 700.000000"
 preserveAspectRatio="xMidYMid meet">
<metadata>
Created by potrace 1.11, written by Peter Selinger 2001-2013
</metadata>
<g transform="translate(0.000000,700.000000) scale(0.100000,-0.100000)"
fill="#000000" stroke="none">
<path d="M845 6985 c-306 -58 -571 -253 -718 -525 -86 -159 -117 -282 -112
-445 4 -160 30 -256 155 -570 88 -223 110 -287 129 -385 6 -30 14 -66 16 -80
40 -197 13 -566 -50 -705 -65 -145 -171 -444 -235 -668 -34 -117 -38 -211 -18
-348 34 -225 177 -470 358 -613 193 -154 381 -217 629 -211 136 3 292 37 371
80 14 7 27 13 30 13 11 -2 98 47 155 85 91 62 176 142 234 221 128 174 199
391 199 611 0 200 -34 324 -182 663 -57 131 -109 256 -116 278 -45 152 -53
197 -53 289 0 185 82 366 237 520 77 76 144 119 246 156 54 19 84 23 175 23
97 -1 121 -4 205 -33 52 -18 129 -51 170 -73 41 -23 91 -49 110 -60 19 -10 44
-24 54 -31 149 -94 314 -180 411 -212 178 -60 434 -34 653 66 248 114 473 370
561 640 34 105 45 176 45 299 0 162 -25 275 -95 425 -22 49 -105 179 -131 206
-7 8 -34 40 -61 71 -132 157 -358 280 -580 315 -80 13 -260 7 -342 -12 -90
-20 -143 -39 -260 -94 -81 -38 -116 -59 -323 -190 -134 -84 -188 -113 -269
-140 -113 -38 -206 -43 -316 -17 -69 16 -211 75 -259 108 -14 10 -28 18 -31
18 -3 0 -83 46 -179 101 -312 183 -437 230 -623 234 -70 2 -149 -3 -190 -10z"/>
<path d="M5939 6996 c-2 -2 -28 -7 -58 -10 -75 -9 -221 -59 -308 -106 -255
-137 -437 -372 -513 -661 -32 -122 -38 -379 -11 -499 68 -304 254 -547 518
-675 104 -51 155 -69 258 -91 62 -12 252 -12 325 1 367 67 664 328 778 685 38
116 46 178 45 340 0 112 -5 153 -26 239 -90 358 -357 638 -705 741 -37 10 -85
22 -107 25 -56 9 -190 16 -196 11z"/>
<path d="M5879 4516 c-2 -2 -25 -7 -51 -10 -100 -13 -282 -84 -363 -140 -191
-133 -324 -306 -394 -513 -19 -58 -24 -74 -39 -158 -13 -72 -4 -415 13 -510
20 -111 30 -150 57 -230 29 -84 90 -210 158 -325 98 -166 144 -300 144 -420 0
-89 -7 -128 -35 -212 -107 -313 -375 -542 -634 -541 -134 0 -243 47 -480 207
-82 56 -161 107 -175 113 -14 7 -47 25 -75 41 -165 94 -398 137 -595 111 -192
-26 -398 -125 -537 -260 -217 -211 -325 -441 -327 -699 -1 -244 60 -410 225
-616 113 -139 216 -224 354 -289 124 -58 155 -63 372 -65 187 -1 203 1 276 25
103 33 234 102 277 145 29 29 112 87 183 128 216 123 476 161 741 107 88 -18
183 -61 507 -227 168 -86 211 -103 344 -134 17 -4 80 -8 140 -9 88 -2 128 2
200 20 162 42 298 109 443 220 7 6 48 44 91 86 148 146 253 345 286 544 7 47
7 227 0 270 -24 137 -47 223 -121 440 -181 530 -201 635 -159 845 8 41 17 89
20 107 20 122 110 419 175 578 65 158 80 224 81 359 1 123 -39 293 -103 441
-91 208 -259 380 -471 480 -138 65 -228 86 -388 91 -74 3 -137 3 -140 0z"/>
<path d="M3405 4463 c-258 -44 -475 -171 -637 -373 -76 -95 -168 -277 -183
-361 -3 -18 -8 -36 -10 -39 -16 -25 -33 -210 -30 -325 6 -247 105 -476 285
-657 255 -254 608 -344 957 -243 255 74 500 291 616 545 59 129 79 228 83 410
3 139 0 180 -17 258 -87 394 -388 694 -783 778 -97 21 -186 23 -281 7z"/>
<path d="M968 1935 c-1 -1 -25 -5 -53 -8 -125 -12 -291 -74 -424 -160 -79 -52
-201 -168 -258 -247 -144 -198 -220 -459 -188 -645 76 -435 378 -752 809 -850
161 -37 324 -13 524 77 207 93 397 285 497 502 32 69 73 199 81 255 22 175 0
323 -72 479 -13 29 -24 55 -24 58 0 21 -121 185 -177 241 -88 88 -106 102
-194 155 -150 90 -283 132 -451 142 -36 2 -68 3 -70 1z"/>
</g>
</svg>
